<svg width="1920" height="1080" viewBox="0 0 1920 1080" fill="none" xmlns="http://www.w3.org/2000/svg">
<circle cx="198.5" cy="97.5" r="6.5" fill="#728AA3"/>
<circle cx="222.5" cy="97.5" r="6.5" fill="#728AA3"/>
<circle cx="246.5" cy="97.5" r="6.5" fill="#728AA3"/>
<circle cx="198.5" cy="122.5" r="6.5" fill="#728AA3"/>
<circle cx="222.5" cy="122.5" r="6.5" fill="#728AA3"/>
<circle cx="246.5" cy="122.5" r="6.5" fill="#728AA3"/>
<circle cx="198.5" cy="147.5" r="6.5" fill="#728AA3"/>
<circle cx="222.5" cy="147.5" r="6.5" fill="#728AA3"/>
<circle cx="246.5" cy="147.5" r="6.5" fill="#728AA3"/>
<circle cx="632.5" cy="917.5" r="6.5" fill="#728AA3"/>
<circle cx="656.5" cy="917.5" r="6.5" fill="#728AA3"/>
<circle cx="680.5" cy="917.5" r="6.5" fill="#728AA3"/>
<circle cx="632.5" cy="942.5" r="6.5" fill="#728AA3"/>
<circle cx="656.5" cy="942.5" r="6.5" fill="#728AA3"/>
<circle cx="680.5" cy="942.5" r="6.5" fill="#728AA3"/>
<circle cx="632.5" cy="967.5" r="6.5" fill="#728AA3"/>
<circle cx="656.5" cy="967.5" r="6.5" fill="#728AA3"/>
<circle cx="680.5" cy="967.5" r="6.5" fill="#728AA3"/>
<circle cx="283.5" cy="556.5" r="6.5" fill="#728AA3"/>
<circle cx="307.5" cy="556.5" r="6.5" fill="#728AA3"/>
<circle cx="331.5" cy="556.5" r="6.5" fill="#728AA3"/>
<circle cx="283.5" cy="581.5" r="6.5" fill="#728AA3"/>
<circle cx="307.5" cy="581.5" r="6.5" fill="#728AA3"/>
<circle cx="331.5" cy="581.5" r="6.5" fill="#728AA3"/>
<circle cx="283.5" cy="606.5" r="6.5" fill="#728AA3"/>
<circle cx="307.5" cy="606.5" r="6.5" fill="#728AA3"/>
<circle cx="331.5" cy="606.5" r="6.5" fill="#728AA3"/>
<circle cx="211.5" cy="531.5" r="6.5" fill="#728AA3"/>
<circle cx="235.5" cy="531.5" r="6.5" fill="#728AA3"/>
<circle cx="259.5" cy="531.5" r="6.5" fill="#728AA3"/>
<circle cx="211.5" cy="556.5" r="6.5" fill="#728AA3"/>
<circle cx="235.5" cy="556.5" r="6.5" fill="#728AA3"/>
<circle cx="259.5" cy="556.5" r="6.5" fill="#728AA3"/>
<circle cx="211.5" cy="581.5" r="6.5" fill="#728AA3"/>
<circle cx="235.5" cy="581.5" r="6.5" fill="#728AA3"/>
<circle cx="259.5" cy="581.5" r="6.5" fill="#728AA3"/>
<circle cx="782.5" cy="214.5" r="6.5" fill="#728AA3"/>
<circle cx="806.5" cy="214.5" r="6.5" fill="#728AA3"/>
<circle cx="830.5" cy="214.5" r="6.5" fill="#728AA3"/>
<circle cx="782.5" cy="239.5" r="6.5" fill="#728AA3"/>
<circle cx="806.5" cy="239.5" r="6.5" fill="#728AA3"/>
<circle cx="830.5" cy="239.5" r="6.5" fill="#728AA3"/>
<circle cx="782.5" cy="264.5" r="6.5" fill="#728AA3"/>
<circle cx="806.5" cy="264.5" r="6.5" fill="#728AA3"/>
<circle cx="584.5" cy="842.5" r="6.5" fill="#728AA3"/>
<circle cx="608.5" cy="842.5" r="6.5" fill="#728AA3"/>
<circle cx="632.5" cy="842.5" r="6.5" fill="#728AA3"/>
<circle cx="584.5" cy="867.5" r="6.5" fill="#728AA3"/>
<circle cx="608.5" cy="867.5" r="6.5" fill="#728AA3"/>
<circle cx="632.5" cy="867.5" r="6.5" fill="#728AA3"/>
<circle cx="584.5" cy="892.5" r="6.5" fill="#728AA3"/>
<circle cx="608.5" cy="892.5" r="6.5" fill="#728AA3"/>
<circle cx="632.5" cy="892.5" r="6.5" fill="#728AA3"/>
<circle cx="1845.5" cy="165.5" r="6.5" fill="#728AA3"/>
<circle cx="1869.5" cy="165.5" r="6.5" fill="#728AA3"/>
<circle cx="1893.5" cy="165.5" r="6.5" fill="#728AA3"/>
<circle cx="1845.5" cy="190.5" r="6.5" fill="#728AA3"/>
<circle cx="1869.5" cy="190.5" r="6.5" fill="#728AA3"/>
<circle cx="1893.5" cy="190.5" r="6.5" fill="#728AA3"/>
<circle cx="1845.5" cy="215.5" r="6.5" fill="#728AA3"/>
<circle cx="1869.5" cy="215.5" r="6.5" fill="#728AA3"/>
<circle cx="1893.5" cy="215.5" r="6.5" fill="#728AA3"/>
<circle cx="1010.5" cy="550.5" r="6.5" fill="#728AA3"/>
<circle cx="1034.5" cy="550.5" r="6.5" fill="#728AA3"/>
<circle cx="1058.5" cy="550.5" r="6.5" fill="#728AA3"/>
<circle cx="1010.5" cy="575.5" r="6.5" fill="#728AA3"/>
<circle cx="1034.5" cy="575.5" r="6.5" fill="#728AA3"/>
<circle cx="1058.5" cy="575.5" r="6.5" fill="#728AA3"/>
<circle cx="1010.5" cy="600.5" r="6.5" fill="#728AA3"/>
<circle cx="1034.5" cy="600.5" r="6.5" fill="#728AA3"/>
<circle cx="1058.5" cy="600.5" r="6.5" fill="#728AA3"/>
<circle cx="1309.5" cy="263.5" r="6.5" fill="#728AA3"/>
<circle cx="1333.5" cy="263.5" r="6.5" fill="#728AA3"/>
<circle cx="1357.5" cy="263.5" r="6.5" fill="#728AA3"/>
<circle cx="1309.5" cy="288.5" r="6.5" fill="#728AA3"/>
<circle cx="1333.5" cy="288.5" r="6.5" fill="#728AA3"/>
<circle cx="1357.5" cy="288.5" r="6.5" fill="#728AA3"/>
<circle cx="1309.5" cy="313.5" r="6.5" fill="#728AA3"/>
<circle cx="1333.5" cy="313.5" r="6.5" fill="#728AA3"/>
<circle cx="1357.5" cy="313.5" r="6.5" fill="#728AA3"/>
<circle cx="1456.5" cy="829.5" r="6.5" fill="#728AA3"/>
<circle cx="1480.5" cy="829.5" r="6.5" fill="#728AA3"/>
<circle cx="1504.5" cy="829.5" r="6.5" fill="#728AA3"/>
<circle cx="1456.5" cy="854.5" r="6.5" fill="#728AA3"/>
<circle cx="1480.5" cy="854.5" r="6.5" fill="#728AA3"/>
<circle cx="1504.5" cy="854.5" r="6.5" fill="#728AA3"/>
<circle cx="1456.5" cy="879.5" r="6.5" fill="#728AA3"/>
<circle cx="1480.5" cy="879.5" r="6.5" fill="#728AA3"/>
<circle cx="1504.5" cy="879.5" r="6.5" fill="#728AA3"/>
<circle cx="1640.5" cy="490.5" r="6.5" fill="#728AA3"/>
<circle cx="1664.5" cy="490.5" r="6.5" fill="#728AA3"/>
<circle cx="1688.5" cy="490.5" r="6.5" fill="#728AA3"/>
<circle cx="1640.5" cy="515.5" r="6.5" fill="#728AA3"/>
<circle cx="1664.5" cy="515.5" r="6.5" fill="#728AA3"/>
<circle cx="1688.5" cy="515.5" r="6.5" fill="#728AA3"/>
<circle cx="1640.5" cy="540.5" r="6.5" fill="#728AA3"/>
<circle cx="1664.5" cy="540.5" r="6.5" fill="#728AA3"/>
<circle cx="1688.5" cy="540.5" r="6.5" fill="#728AA3"/>
<circle cx="782.5" cy="289.5" r="6.5" fill="#728AA3"/>
<circle cx="806.5" cy="289.5" r="6.5" fill="#728AA3"/>
<circle cx="782.5" cy="314.5" r="6.5" fill="#728AA3"/>
<circle cx="806.5" cy="314.5" r="6.5" fill="#728AA3"/>
<circle cx="830.5" cy="314.5" r="6.5" fill="#728AA3"/>
<circle cx="782.5" cy="339.5" r="6.5" fill="#728AA3"/>
<circle cx="806.5" cy="339.5" r="6.5" fill="#728AA3"/>
<circle cx="830.5" cy="339.5" r="6.5" fill="#728AA3"/>
<circle cx="74.5" cy="999.5" r="6.5" transform="rotate(-180 74.5 999.5)" fill="#728AA3"/>
<circle cx="50.5" cy="999.5" r="6.5" transform="rotate(-180 50.5 999.5)" fill="#728AA3"/>
<circle cx="26.5" cy="999.5" r="6.5" transform="rotate(-180 26.5 999.5)" fill="#728AA3"/>
<circle cx="74.5" cy="974.5" r="6.5" transform="rotate(-180 74.5 974.5)" fill="#728AA3"/>
<circle cx="50.5" cy="974.5" r="6.5" transform="rotate(-180 50.5 974.5)" fill="#728AA3"/>
<circle cx="26.5" cy="974.5" r="6.5" transform="rotate(-180 26.5 974.5)" fill="#728AA3"/>
<circle cx="74.5" cy="949.5" r="6.5" transform="rotate(-180 74.5 949.5)" fill="#728AA3"/>
<circle cx="50.5" cy="949.5" r="6.5" transform="rotate(-180 50.5 949.5)" fill="#728AA3"/>
<circle cx="74.5" cy="924.5" r="6.5" transform="rotate(-180 74.5 924.5)" fill="#728AA3"/>
<circle cx="50.5" cy="924.5" r="6.5" transform="rotate(-180 50.5 924.5)" fill="#728AA3"/>
<circle cx="74.5" cy="899.5" r="6.5" transform="rotate(-180 74.5 899.5)" fill="#728AA3"/>
<circle cx="50.5" cy="899.5" r="6.5" transform="rotate(-180 50.5 899.5)" fill="#728AA3"/>
<circle cx="26.5" cy="899.5" r="6.5" transform="rotate(-180 26.5 899.5)" fill="#728AA3"/>
<circle cx="74.5" cy="874.5" r="6.5" transform="rotate(-180 74.5 874.5)" fill="#728AA3"/>
<circle cx="50.5" cy="874.5" r="6.5" transform="rotate(-180 50.5 874.5)" fill="#728AA3"/>
<circle cx="26.5" cy="874.5" r="6.5" transform="rotate(-180 26.5 874.5)" fill="#728AA3"/>
<circle cx="1381.5" cy="288.5" r="6.5" fill="#728AA3"/>
<circle cx="1405.5" cy="288.5" r="6.5" fill="#728AA3"/>
<circle cx="1429.5" cy="288.5" r="6.5" fill="#728AA3"/>
<circle cx="1381.5" cy="313.5" r="6.5" fill="#728AA3"/>
<circle cx="1405.5" cy="313.5" r="6.5" fill="#728AA3"/>
<circle cx="1429.5" cy="313.5" r="6.5" fill="#728AA3"/>
<circle cx="1381.5" cy="338.5" r="6.5" fill="#728AA3"/>
<circle cx="1405.5" cy="338.5" r="6.5" fill="#728AA3"/>
<circle cx="1429.5" cy="338.5" r="6.5" fill="#728AA3"/>
</svg>
